<?xml version="1.0" standalone="no"?><!DOCTYPE svg PUBLIC "-//W3C//DTD SVG 1.1//EN" "http://www.w3.org/Graphics/SVG/1.1/DTD/svg11.dtd"><svg t="1533290010886" class="icon" style="" viewBox="0 0 1024 1024" version="1.1" xmlns="http://www.w3.org/2000/svg" p-id="13726" xmlns:xlink="http://www.w3.org/1999/xlink" width="20" height="20"><defs><style type="text/css"></style></defs><path d="M365.249 553.906c-27.971 13.961-200.197 85.83-81.06 201.265 64.685 64.576 173.053 23.765 199.21-38.509 3.497-43.631 3.43-360.643 3.43-404.276 0-43.631 129.767-276.805 366.502-144.373 0 0 266.37 155.346-42.277 406.019 0 0-105.53 8.5-81.055-80.51-3.497-26.18 128.576-86.89 111.092-170.667-27.97-99.482-190.558-128.524-232.68-3.491v395.55c1.684 55.55-108.3 237.86-336.008 161.01 0 0-152.011-64.838-143.594-228.125 6.733-74.07 76.77-164.741 155.377-194.524 87.415-24.43 119.523 62.234 81.063 100.631z" p-id="13727" fill="#7789DB"></path></svg>