<?xml version="1.0" standalone="no"?><!DOCTYPE svg PUBLIC "-//W3C//DTD SVG 1.1//EN" "http://www.w3.org/Graphics/SVG/1.1/DTD/svg11.dtd"><svg t="1533211842924" class="icon" style="" viewBox="0 0 1024 1024" version="1.1" xmlns="http://www.w3.org/2000/svg" p-id="2189" xmlns:xlink="http://www.w3.org/1999/xlink" width="15" height="15"><defs><style type="text/css"></style></defs><path d="M238.208 317.952L170.88 261.44a40.32 40.32 0 0 1 51.84-61.76l57.792 48.448A283.008 283.008 0 0 1 417.728 156.8v-14.464a80.64 80.64 0 1 1 161.28 0v14.464a283.2 283.2 0 0 1 201.664 271.04v217.28c44.544 0 80.64 36.16 80.64 80.448v5.824l-0.064 4.032 17.984 15.168a40.32 40.32 0 1 1-51.84 61.76l-10.624-8.96a80.256 80.256 0 0 1-1.28 0.64L237.696 319.168l0.512-1.216z m-21.376 89.024l482.432 404.864h-483.2a80.64 80.64 0 0 1-80.64-80.448v-5.824c0-44.416 35.84-80.448 80.64-80.448V427.84c0-7.04 0.256-13.952 0.768-20.864z m382.4 404.864v55.36a90.752 90.752 0 1 1-181.504 0v-55.36 41.6h181.504v-41.6z" fill="#757575" p-id="2190"></path></svg>