<?xml version="1.0" standalone="no"?><!DOCTYPE svg PUBLIC "-//W3C//DTD SVG 1.1//EN" "http://www.w3.org/Graphics/SVG/1.1/DTD/svg11.dtd"><svg t="1533195817538" class="icon" style="" viewBox="0 0 1024 1024" version="1.1" xmlns="http://www.w3.org/2000/svg" p-id="3531" xmlns:xlink="http://www.w3.org/1999/xlink" width="18" height="18"><defs><style type="text/css"></style></defs><path d="M460.8 466.488889H52.337778a51.2 51.2 0 0 0-52.337778 45.511111 52.337778 52.337778 0 0 0 52.337778 51.2h408.462222v408.462222A51.2 51.2 0 0 0 512 1024a52.337778 52.337778 0 0 0 51.2-52.337778V563.2h408.462222A51.2 51.2 0 0 0 1024 512a52.337778 52.337778 0 0 0-52.337778-45.511111H563.2V52.337778A51.2 51.2 0 0 0 512 0a52.337778 52.337778 0 0 0-51.2 52.337778z" p-id="3532" fill="#ffffff"></path></svg>