<?xml version="1.0" standalone="no"?><!DOCTYPE svg PUBLIC "-//W3C//DTD SVG 1.1//EN" "http://www.w3.org/Graphics/SVG/1.1/DTD/svg11.dtd"><svg t="1533258272038" class="icon" style="" viewBox="0 0 1024 1024" version="1.1" xmlns="http://www.w3.org/2000/svg" p-id="6454" xmlns:xlink="http://www.w3.org/1999/xlink" width="20" height="20"><defs><style type="text/css"></style></defs><path d="M596.088652 609.92938c66.349127-47.626717 97.692996-133.107577 97.692996-133.107577 70.77288-71.850421 21.3871-118.642121 8.809643-128.648009 1.112334-4.678556 1.734504-20.815071-0.25992-66.74003C703.958428 87.676875 572.884161 73.834612 572.884161 73.834612c-33.196053-7.461949-53.648874-8.278547-59.738569-8.343015-1.690502-0.097214-23.887037-1.190105-63.192228 7.531534 0 0-127.002532 24.425296-129.443118 207.598128-1.998517 45.924959-1.376347 62.059428-0.264013 66.74003-12.577456 9.998725-61.963237 56.796564 8.813736 128.648009 0 0 33.784454 83.036181 92.807732 133.107577 0 0 14.247492 41.927925-1.219781 72.045873 0 0-158.753677 31.750121-318.318836 188.063213l-0.601704 89.160669 418.028768 0.215918 0-0.225127 402.385487-0.201591 0.132006-88.137363C762.706437 713.731514 597.308433 681.980369 597.308433 681.980369 581.840136 651.856281 596.088652 609.92938 596.088652 609.92938L596.088652 609.92938zM596.088652 609.92938" p-id="6455" fill="#ffffff"></path><path d="M703.11727 577.820078l256.3249 0 0 59.859319-256.3249 0 0-59.859319Z" p-id="6456" fill="#ffffff"></path><path d="M801.349549 479.587799l59.860343 0 0 256.325923-59.860343 0 0-256.325923Z" p-id="6457" fill="#ffffff"></path></svg>