<?xml version="1.0" standalone="no"?><!DOCTYPE svg PUBLIC "-//W3C//DTD SVG 1.1//EN" "http://www.w3.org/Graphics/SVG/1.1/DTD/svg11.dtd"><svg t="1533206430533" class="icon" style="" viewBox="0 0 1024 1024" version="1.1" xmlns="http://www.w3.org/2000/svg" p-id="3979" xmlns:xlink="http://www.w3.org/1999/xlink" width="20" height="20"><defs><style type="text/css"></style></defs><path d="M511.9 512h0.2-0.2M511.9 512h0.2-0.2M793.4 443.1V512c0 79.3-24 148.3-72.1 207-48 58.7-107.4 92.3-178.1 101v71.1h125.1c8.5 0 15.8 3.4 22 10.2 6.2 6.8 9.3 14.9 9.3 24.2 0 9.3-3.1 17.4-9.3 24.2-6.2 6.8-13.5 10.2-22 10.2H355.6c-8.5 0-15.8-3.4-22-10.2-6.2-6.8-9.3-14.9-9.3-24.2 0-9.3 3.1-17.4 9.3-24.2 6.2-6.8 13.5-10.2 22-10.2h125.1V820c-70.7-8.6-130-42.3-178.1-101-48-58.7-72.1-127.7-72.1-207v-68.9c0-9.3 3.1-17.4 9.3-24.2 6.2-6.8 13.5-10.2 22-10.2s15.8 3.4 22 10.2c6.2 6.8 9.3 14.9 9.3 24.2V512c0 66.4 21.4 123.2 64.3 170.4 42.8 47.2 94.4 70.8 154.6 70.8s111.8-23.6 154.6-70.8c42.8-47.2 64.3-104 64.3-170.4v-68.9c0-9.3 3.1-17.4 9.3-24.2s13.5-10.2 22-10.2 15.8 3.4 22 10.2c6.1 6.8 9.2 14.8 9.2 24.2z m-125-206.8V512c0 47.4-15.3 87.9-45.9 121.7-30.6 33.7-67.4 50.6-110.4 50.6s-79.8-16.9-110.4-50.6c-30.6-33.7-45.9-74.3-45.9-121.7V236.3c0-47.4 15.3-87.9 45.9-121.7C432.2 80.9 469 64 512 64s79.8 16.9 110.4 50.6c30.6 33.8 46 74.3 46 121.7z" fill="#9e9e9e" p-id="3980"></path></svg>