<?xml version="1.0" standalone="no"?><!DOCTYPE svg PUBLIC "-//W3C//DTD SVG 1.1//EN" "http://www.w3.org/Graphics/SVG/1.1/DTD/svg11.dtd"><svg t="1533292025823" class="icon" style="" viewBox="0 0 1024 1024" version="1.1" xmlns="http://www.w3.org/2000/svg" p-id="19558" xmlns:xlink="http://www.w3.org/1999/xlink" width="30" height="30"><defs><style type="text/css"></style></defs><path d="M375.978667 590.506667C324.266667 544.904533 290.133333 465.6128 290.133333 375.466667c0-175.5136 84.036267-256 187.733334-256s187.733333 80.4864 187.733333 256c0 90.146133-34.167467 169.437867-85.845333 215.04h0.648533c4.266667 58.845867 119.671467 80.247467 227.191467 133.12 92.706133 45.568 96.938667 114.312533 96.938666 116.053333V887.466667a51.2 51.2 0 0 1-51.2 51.2H102.4A51.2 51.2 0 0 1 51.2 887.466667v-47.786667c0-1.706667 4.232533-70.4512 96.938667-116.053333 107.52-52.872533 222.890667-74.274133 227.191466-133.12h0.648534z" fill="#259b24" p-id="19559"></path><path d="M887.466667 665.6h68.266666a17.066667 17.066667 0 1 1 0 34.133333h-68.266666a17.066667 17.066667 0 1 1 0-34.133333z m-68.266667-136.533333h136.533333a17.066667 17.066667 0 1 1 0 34.133333h-136.533333a17.066667 17.066667 0 1 1 0-34.133333z m-102.4-136.533334h238.933333a17.066667 17.066667 0 1 1 0 34.133334h-238.933333a17.066667 17.066667 0 1 1 0-34.133334z" fill="#259b24" p-id="19560"></path></svg>