<?xml version="1.0" standalone="no"?><!DOCTYPE svg PUBLIC "-//W3C//DTD SVG 1.1//EN" "http://www.w3.org/Graphics/SVG/1.1/DTD/svg11.dtd"><svg t="1533256646256" class="icon" style="" viewBox="0 0 1024 1024" version="1.1" xmlns="http://www.w3.org/2000/svg" p-id="2439" xmlns:xlink="http://www.w3.org/1999/xlink" width="30" height="30"><defs><style type="text/css"></style></defs><path d="M290.133333 375.466667c0-175.5136 84.036267-256 187.733334-256s187.733333 80.4864 187.733333 256c0 90.146133-34.167467 169.437867-85.845333 215.04 4.9152 58.845867 120.32 80.247467 227.84 133.12 92.706133 45.568 96.938667 114.312533 96.938666 116.053333V887.466667a51.2 51.2 0 0 1-51.2 51.2H102.4A51.2 51.2 0 0 1 51.2 887.466667v-47.786667c0-1.706667 4.232533-70.4512 96.938667-116.053333 107.52-52.872533 222.890667-74.274133 227.191466-133.12C324.3008 544.904533 290.133333 465.6128 290.133333 375.466667z m34.133334 0c0 87.210667 34.816 162.679467 85.504 198.929066 26.077867 91.477333-117.794133 121.6512-227.498667 171.4176C93.013333 786.295467 85.333333 829.44 85.333333 839.68v13.653333c0 51.2 0 51.2 51.2 51.2h682.666667c51.2 0 51.2 0 51.2-51.2v-13.653333c0-10.24-7.509333-53.1456-96.938667-93.866667-109.2608-49.7664-253.5424-79.906133-227.498666-171.4176C596.650667 538.112 631.466667 462.677333 631.466667 375.466667c0-152.132267-66.218667-221.866667-153.6-221.866667S324.266667 223.3344 324.266667 375.466667z" fill="#bdbdbd" p-id="2440"></path><path d="M887.466667 665.6h68.266666a17.066667 17.066667 0 1 1 0 34.133333h-68.266666a17.066667 17.066667 0 1 1 0-34.133333z m-68.266667-136.533333h136.533333a17.066667 17.066667 0 1 1 0 34.133333h-136.533333a17.066667 17.066667 0 1 1 0-34.133333z m-102.4-136.533334h238.933333a17.066667 17.066667 0 1 1 0 34.133334h-238.933333a17.066667 17.066667 0 1 1 0-34.133334z" fill="#bdbdbd" p-id="2441"></path></svg>