<?xml version="1.0" standalone="no"?><!DOCTYPE svg PUBLIC "-//W3C//DTD SVG 1.1//EN" "http://www.w3.org/Graphics/SVG/1.1/DTD/svg11.dtd"><svg t="1533370581346" class="icon" style="" viewBox="0 0 1024 1024" version="1.1" xmlns="http://www.w3.org/2000/svg" p-id="3667" xmlns:xlink="http://www.w3.org/1999/xlink" width="25" height="25"><defs><style type="text/css"></style></defs><path d="M420.977778 637.155556c-11.377778 0-22.755556-5.688889-34.133334-17.066667a233.244444 233.244444 0 0 1-79.644444-176.355556c0-56.888889 22.755556-113.777778 62.577778-153.6l227.555555-221.866666c91.022222-85.333333 238.933333-79.644444 341.333334 17.066666 51.2 51.2 79.644444 113.777778 79.644444 182.044445 0 56.888889-22.755556 113.777778-62.577778 153.6l-45.511111 39.822222c-22.755556 17.066667-51.2 17.066667-73.955555 0s-17.066667-51.2 0-73.955556l45.511111-45.511111c22.755556-22.755556 34.133333-51.2 34.133333-79.644444 0-39.822222-17.066667-79.644444-45.511111-108.088889-56.888889-56.888889-147.911111-62.577778-199.111111-17.066667l-227.555556 221.866667c-22.755556 22.755556-34.133333 51.2-34.133333 85.333333 0 39.822222 17.066667 79.644444 45.511111 108.088889 22.755556 17.066667 22.755556 51.2 5.688889 73.955556-11.377778 5.688889-22.755556 11.377778-39.822222 11.377778z" p-id="3668" fill="#9e9e9e"></path><path d="M273.066667 1018.311111c-68.266667 0-136.533333-28.444444-187.733334-79.644444-51.2-51.2-79.644444-119.466667-79.644444-187.733334 0-56.888889 17.066667-102.4 51.2-142.222222l5.688889-5.688889 5.688889-5.688889c17.066667-11.377778 28.444444-22.755556 45.511111-39.822222 22.755556-17.066667 51.2-17.066667 73.955555 0 17.066667 22.755556 17.066667 51.2 0 73.955556l-45.511111 45.511111c-28.444444 28.444444-34.133333 56.888889-34.133333 79.644444 0 39.822222 17.066667 79.644444 51.2 113.777778 62.577778 56.888889 147.911111 68.266667 199.111111 17.066667l221.866667-221.866667c28.444444-28.444444 34.133333-56.888889 34.133333-79.644444 0-39.822222-17.066667-79.644444-51.2-113.777778-22.755556-17.066667-22.755556-51.2 0-73.955556 17.066667-22.755556 51.2-22.755556 73.955556 0 51.2 51.2 79.644444 119.466667 79.644444 187.733334 0 56.888889-22.755556 113.777778-62.577778 153.6l-221.866666 221.866666c-45.511111 34.133333-102.4 56.888889-159.288889 56.888889z" p-id="3669" fill="#9e9e9e"></path></svg>