<?xml version="1.0" standalone="no"?><!DOCTYPE svg PUBLIC "-//W3C//DTD SVG 1.1//EN" "http://www.w3.org/Graphics/SVG/1.1/DTD/svg11.dtd"><svg t="1533305045447" class="icon" style="" viewBox="0 0 1024 1024" version="1.1" xmlns="http://www.w3.org/2000/svg" p-id="6510" xmlns:xlink="http://www.w3.org/1999/xlink" width="20" height="20"><defs><style type="text/css"></style></defs><path d="M4.056893 2.017958h451.387077v93.065512H4.056893v-93.065512z m566.178381 0h261.329629v93.065512H570.235274v-93.065512z m357.129413 0h94.958627v94.958627H927.364687v-94.958627zM4.056893 362.300174h451.387077v93.137144H4.056893v-93.137144zM1.112844 2.017958h93.066536v451.387076H1.112844V2.017958z m361.26459 0h93.065512v451.387076H362.377434V2.017958zM158.443969 172.242727H285.148592v126.704624H158.443969V172.242727z m411.791305-77.159257h90.614697v95.520422h-90.614697V95.08347z m261.260045 0h99.373165v175.761874h-99.373165V95.08347z m95.869368 95.520422h94.958627v166.301417H927.364687V190.603892zM664.28316 261.875051h167.282767V381.573104H664.28316V261.875051z m93.62833 94.958627h170.154161v96.501771H757.91149v-96.501771z m-187.114421 3.013634H664.28316v93.487114h-93.486091v-93.487114zM1.112844 546.681347h93.066536v210.872498H1.112844v-210.872498z m93.277337 191.038797h100.704486v100.776117h-100.704486v-100.776117z m-93.277337 96.782157h93.277337v189.496676H1.112844V834.502301zM189.418393 546.681347h286.559218v115.773678H189.418393V546.681347z m69.730061 105.471042h119.556837v110.025772H259.148454v-110.025772z m97.27232 85.567755h119.556837v191.460398H356.420774v-191.460398z m-92.78615 96.782157h115.07169v189.496676H263.634624V834.502301zM167.83484 904.021561h111.707063v119.977416H167.83484V904.021561z m472.20008-357.340214H853.850444v191.038797H640.03492V546.681347z m264.973619 0h117.314775v117.314776H905.008539V546.681347z m-357.058805 95.520422h117.314775v212.763566H547.949734V642.201769z m187.885994 68.747688H853.850444v122.500886H735.835728V710.949457zM547.949734 904.021561h117.314775v119.977416H547.949734V904.021561z m282.214265 25.158981h192.160339v94.818435H830.163999v-94.818435z m96.080169-95.730199h96.08017v115.772655h-96.08017V833.450343z" fill="#9e9e9e" p-id="6511"></path></svg>