<?xml version="1.0" standalone="no"?><!DOCTYPE svg PUBLIC "-//W3C//DTD SVG 1.1//EN" "http://www.w3.org/Graphics/SVG/1.1/DTD/svg11.dtd"><svg t="1533301966955" class="icon" style="" viewBox="0 0 1206 1024" version="1.1" xmlns="http://www.w3.org/2000/svg" p-id="7089" xmlns:xlink="http://www.w3.org/1999/xlink" width="30.62109375" height="26"><defs><style type="text/css"></style></defs><path d="M587.3806653747558 933.875H234.62664590454102c-70.12579861450195 0-102.00116244506836-87.12599249267578-48.87555688476562-131.75150070190432 76.50087121582031-65.87575076293945 204.0023240661621-125.37642810058597 282.6282200317383-182.7520823364258 59.500678161621096-44.62550820922852 14.875169128417966-95.62608901977539 0-123.2514041748047-2.12502392578125-4.250048675537109-4.250048675537109-6.375072601318361-6.375072601318361-8.50009652709961-12.750145202636721-14.875169128417966-53.12560556030272-72.25082336425781-53.12560473632813-225.25256661987308C408.8786317138672 81.74029205322267 587.3806653747558 90.24038858032225 587.3806653747558 90.24038858032225s178.50203366088866-10.625121276855468 178.50203366088866 172.1269610595703c0 155.1267671813965-38.250435607910156 210.37739666748047-51.00058163452148 225.25256661987308-2.12502392578125 2.12502392578125-4.250048675537109 6.375072601318361-6.375072601318361 8.50009652709961-17.000193878173828 27.625314331054682-59.500678161621096 78.62589596557618 0 123.2514041748047 78.62589596557618 57.375653411865244 206.12734799194337 116.87633157348633 282.6282200317383 182.7520823364258 53.12560556030272 44.62550820922852 19.125217803955078 131.75150070190432-48.87555688476562 131.75150070190432H587.3806653747558z" fill="#259b24" p-id="7090"></path></svg>