<?xml version="1.0" standalone="no"?><!DOCTYPE svg PUBLIC "-//W3C//DTD SVG 1.1//EN" "http://www.w3.org/Graphics/SVG/1.1/DTD/svg11.dtd"><svg t="1533025604556" class="icon" style="" viewBox="0 0 1024 1024" version="1.1" xmlns="http://www.w3.org/2000/svg" p-id="8111" xmlns:xlink="http://www.w3.org/1999/xlink" width="200" height="200"><defs><style type="text/css"></style></defs><path d="M512.000512 76.893274c-240.302995 0-435.106726 194.803731-435.106726 435.106726 0 240.301971 194.803731 435.105702 435.106726 435.105702s435.104679-194.803731 435.104679-435.105702C947.105191 271.697005 752.303506 76.893274 512.000512 76.893274zM511.999488 918.100088c-224.283136 0-406.100088-181.817975-406.100088-406.101111 0-224.282113 181.815929-406.099065 406.100088-406.099065 224.283136 0 406.100088 181.816952 406.100088 406.099065C918.098553 736.282113 736.282624 918.100088 511.999488 918.100088z" p-id="8112"></path><path d="M745.847467 484.774939 539.22762 484.774939 539.22762 278.161231c0-15.036461-12.189623-27.226085-27.228131-27.226085-15.035438 0-27.226085 12.189623-27.226085 27.226085l0 206.613708L278.149463 484.774939c-15.035438 0-27.225061 12.190647-27.225061 27.226085s12.190647 27.225061 27.225061 27.225061l206.622918 0 0 206.611661c0 15.038508 12.190647 27.225061 27.226085 27.225061 15.038508 0 27.228131-12.186554 27.228131-27.225061L539.226596 539.227108l206.619848 0c15.035438 0 27.226085-12.189623 27.226085-27.225061S760.883929 484.774939 745.847467 484.774939L745.847467 484.774939zM745.847467 484.774939" p-id="8113"></path></svg>