<?xml version="1.0" standalone="no"?><!DOCTYPE svg PUBLIC "-//W3C//DTD SVG 1.1//EN" "http://www.w3.org/Graphics/SVG/1.1/DTD/svg11.dtd"><svg t="1533025580558" class="icon" style="" viewBox="0 0 1024 1024" version="1.1" xmlns="http://www.w3.org/2000/svg" p-id="7437" xmlns:xlink="http://www.w3.org/1999/xlink" width="200" height="200"><defs><style type="text/css"></style></defs><path d="M512 0C229.376 0 0 229.376 0 512s229.376 512 512 512 512-229.376 512-512S794.624 0 512 0z m0 962.56C264.192 962.56 61.44 759.808 61.44 512S264.192 61.44 512 61.44s450.56 202.752 450.56 450.56-202.752 450.56-450.56 450.56z" p-id="7438"></path><path d="M569.344 151.552c-12.288 12.288-12.288 30.72 0 43.008 83.968 83.968 131.072 196.608 131.072 317.44 0 118.784-47.104 231.424-131.072 317.44-12.288 12.288-12.288 30.72 0 43.008 6.144 6.144 14.336 8.192 22.528 8.192s16.384-2.048 22.528-8.192c96.256-96.256 149.504-223.232 149.504-360.448S710.656 247.808 614.4 151.552c-12.288-12.288-32.768-12.288-45.056 0z" p-id="7439"></path><path d="M425.984 294.912c-12.288 12.288-12.288 30.72 0 43.008 96.256 96.256 96.256 251.904 0 346.112-12.288 12.288-12.288 30.72 0 43.008 6.144 6.144 14.336 8.192 22.528 8.192s16.384-2.048 22.528-8.192c118.784-118.784 118.784-313.344 0-434.176-12.288-10.24-32.768-10.24-45.056 2.048zM282.624 438.272c-12.288 12.288-12.288 30.72 0 43.008 8.192 8.192 12.288 18.432 12.288 30.72s-4.096 22.528-12.288 30.72c-12.288 12.288-12.288 30.72 0 43.008 6.144 6.144 14.336 8.192 22.528 8.192s16.384-2.048 22.528-8.192c40.96-40.96 40.96-106.496 0-147.456-12.288-12.288-32.768-12.288-45.056 0z" p-id="7440"></path></svg>