<?xml version="1.0" standalone="no"?><!DOCTYPE svg PUBLIC "-//W3C//DTD SVG 1.1//EN" "http://www.w3.org/Graphics/SVG/1.1/DTD/svg11.dtd"><svg t="1533025476810" class="icon" style="" viewBox="0 0 1024 1024" version="1.1" xmlns="http://www.w3.org/2000/svg" p-id="4039" xmlns:xlink="http://www.w3.org/1999/xlink" width="200" height="200"><defs><style type="text/css"></style></defs><path d="M133.467 510.239c0-21.949 7.526-40.449 22.553-55.501 15.027-15.052 33.779-22.553 56.13-22.553 22.754 0 41.682 7.627 56.734 22.855 15.052 15.253 22.553 33.653 22.553 55.199 0 21.143-7.526 39.341-22.553 54.595-15.027 15.253-34.156 22.88-57.338 22.88-22.377 0-40.978-7.652-55.803-22.88-14.851-15.228-22.276-33.452-22.276-54.595zM434.203 510.239c0-21.949 7.527-40.449 22.555-55.501 15.025-15.052 33.753-22.553 56.13-22.553 22.753 0 41.682 7.627 56.734 22.855 15.028 15.253 22.552 33.653 22.552 55.199 0 21.143-7.524 39.341-22.552 54.595-15.028 15.253-34.156 22.88-57.34 22.88-22.374 0-40.977-7.652-55.801-22.88-14.85-15.228-22.278-33.452-22.278-54.595zM734.891 510.239c0-21.949 7.524-40.449 22.552-55.501 15.028-15.052 33.753-22.553 56.104-22.553 22.756 0 41.682 7.627 56.736 22.855 15.051 15.253 22.552 33.653 22.552 55.199 0 21.143-7.527 39.341-22.552 54.595-15.028 15.253-34.158 22.88-57.339 22.88-22.377 0-40.977-7.652-55.804-22.88-14.824-15.228-22.249-33.452-22.249-54.595z" fill="#ffffff" p-id="4040"></path></svg>