<?xml version="1.0" standalone="no"?><!DOCTYPE svg PUBLIC "-//W3C//DTD SVG 1.1//EN" "http://www.w3.org/Graphics/SVG/1.1/DTD/svg11.dtd"><svg t="1533347437436" class="icon" style="" viewBox="0 0 1024 1024" version="1.1" xmlns="http://www.w3.org/2000/svg" p-id="2831" xmlns:xlink="http://www.w3.org/1999/xlink" width="20" height="20"><defs><style type="text/css"></style></defs><path d="M275.2 104.533333 275.2 120.891733 275.2 104.533333Z" p-id="2832" fill="#ffffff"></path><path d="M512 359.338667c-105.685333 0-191.6672 85.981867-191.6672 191.6672S406.314667 742.673067 512 742.673067s191.6672-85.981867 191.6672-191.6672S617.685333 359.338667 512 359.338667z" p-id="2833" fill="#ffffff"></path><path d="M873.745067 252.1088 731.6736 252.1088l-40.234667-103.876267c-7.005867-12.834133-27.2896-33.8432-60.603733-33.8432L384.1024 114.389333c-32.392533 0-53.213867 21.060267-60.424533 33.527467l-40.405333 104.192L150.254933 252.1088c-81.408 0-147.6352 66.2272-147.6352 147.6352l0 362.222933c0 81.408 66.2272 147.6352 147.6352 147.6352l723.4816 0c81.408 0 147.6352-66.2272 147.6352-147.6352L1021.371733 399.744C1021.371733 318.336 955.153067 252.1088 873.745067 252.1088zM512 793.873067c-133.9136 0-242.8672-108.9536-242.8672-242.8672S378.0864 308.138667 512 308.138667s242.8672 108.9536 242.8672 242.8672S645.9136 793.873067 512 793.873067z" p-id="2834" fill="#ffffff"></path><path d="M167.799467 218.8032l74.666667 0c14.728533 0 26.666667-11.938133 26.666667-26.666667s-11.938133-26.666667-26.666667-26.666667l-74.666667 0c-14.728533 0-26.666667 11.938133-26.666667 26.666667S153.070933 218.8032 167.799467 218.8032z" p-id="2835" fill="#ffffff"></path></svg>