<?xml version="1.0" standalone="no"?><!DOCTYPE svg PUBLIC "-//W3C//DTD SVG 1.1//EN" "http://www.w3.org/Graphics/SVG/1.1/DTD/svg11.dtd"><svg t="1533301581524" class="icon" style="" viewBox="0 0 1027 1024" version="1.1" xmlns="http://www.w3.org/2000/svg" p-id="28499" xmlns:xlink="http://www.w3.org/1999/xlink" width="20.05859375" height="20"><defs><style type="text/css"></style></defs><path d="M1024.851006 587.587616V437.275146c0-15.371451-11.952056-27.323507-27.323506-27.323507h-83.700128c-11.958182 0-22.205135-7.689299-25.619424-18.791866-6.833684-20.496969-14.517878-40.138324-23.915344-58.930191-5.124498-10.246953-3.413269-23.06075 5.129603-31.598516l59.778658-59.783763c10.246953-10.248995 10.246953-28.179121 0-38.433222L823.298666 96.514945c-10.246953-10.247974-28.185247-10.247974-38.432201 0l-59.778658 59.783763c-8.544913 8.542871-21.350542 10.246953-31.604642 5.122456-18.78574-9.393381-38.428116-17.931147-58.923043-23.910238-11.102568-3.418374-18.791867-14.520941-18.791867-25.625551V27.337801c-0.855614-15.372472-12.812776-27.330654-28.184226-27.330654H437.27258c-15.371451 0-27.323507 11.958182-27.323507 27.330654v83.700127c0 11.952056-7.689299 22.20003-18.791866 25.619425-20.496969 6.833684-40.138324 14.516857-58.930191 23.910238-10.246953 5.124498-23.06075 3.418374-31.598516-5.124497L240.844737 95.65933c-10.247974-10.247974-28.179121-10.247974-38.433222 0L97.365951 203.269696c-10.246953 10.246953-10.246953 28.184226 0 38.433221l59.783764 59.782742c8.538787 8.538787 10.248995 21.350542 5.124497 31.599537-9.393381 18.78574-17.936252 38.433221-23.915343 58.928149-3.413269 11.102568-14.516857 18.78574-25.619425 18.78574H27.335235c-15.372472-0.848467-27.330654 11.103589-27.330654 26.47504V587.586595c0 15.371451 11.958182 27.329633 27.330654 27.329633h83.700127c11.952056 0 22.20003 7.689299 25.619425 18.791866 6.833684 20.496969 14.516857 40.137303 23.910238 58.92917 5.124498 10.247974 3.418374 23.056666-5.124497 31.599537l-59.783764 59.783763c-10.247974 10.247974-10.247974 28.179121 0 38.428116l105.905263 105.899137c10.248995 10.2541 28.180142 10.2541 38.428116 0l59.783764-59.778658c8.542871-8.542871 21.350542-10.246953 31.599536-5.124498 18.791867 9.393381 38.433221 17.932168 58.92917 23.910238 11.102568 3.420416 18.791867 14.516857 18.791867 25.621467v83.698085c0 15.372472 11.958182 27.330654 27.329633 27.330654h150.306343c15.377577 0 27.330654-11.958182 27.330654-27.330654v-82.844513c0-11.958182 7.687257-22.205135 18.791867-25.619424 20.495948-6.833684 40.137303-14.517878 58.929169-23.915344 10.246953-5.124498 23.054624-3.413269 31.598516 5.129603l59.783764 59.778658c10.247974 10.246953 28.179121 10.246953 38.428116 0l105.904241-105.901178c10.247974-10.246953 10.247974-28.184226 0-38.432201l-59.782742-59.778658c-8.544913-8.543892-10.247974-21.350542-5.124497-31.604642 9.393381-18.78574 17.931147-38.428116 23.910238-58.923043 3.418374-11.102568 14.522983-18.791867 25.625551-18.791867h83.694001c17.078596-0.855614 29.031673-12.812776 29.031672-28.184226zM512.427794 753.270515c-132.375197 0-240.834029-107.610365-240.83403-240.840155 0-132.374176 107.60526-240.834029 240.83403-240.83403 133.22979 0 240.840156 108.458833 240.840155 240.83403 0 132.381323-108.458833 240.840156-240.840155 240.840155z m0 0" fill="#30A1DC" p-id="28500"></path></svg>