<?xml version="1.0" standalone="no"?><!DOCTYPE svg PUBLIC "-//W3C//DTD SVG 1.1//EN" "http://www.w3.org/Graphics/SVG/1.1/DTD/svg11.dtd"><svg t="1532950942575" class="icon" style="" viewBox="0 0 1828 1024" version="1.1" xmlns="http://www.w3.org/2000/svg" p-id="3597" xmlns:xlink="http://www.w3.org/1999/xlink" width="357.03125" height="200"><defs><style type="text/css"></style></defs><path d="M1024 724.114286h95.085714V548.571429H1024v175.542857zM555.885714 460.8H358.4V585.142857h197.485714V460.8z m468.114286 43.885714h95.085714V343.771429H1024v160.914285z m138.971429 219.428572h95.085714V548.571429h-95.085714v175.542857zM1660.342857 0H153.6C65.828571 0 0 65.828571 0 153.6v716.8C0 950.857143 65.828571 1024 153.6 1024h1506.742857c80.457143 0 153.6-65.828571 153.6-153.6V153.6c0-87.771429-73.142857-153.6-153.6-153.6zM226.742857 475.428571c-7.314286-7.314286-29.257143-29.257143-43.885714-36.571428 80.457143-58.514286 153.6-160.914286 197.485714-263.314286l58.514286 14.628572c-14.628571 36.571429-29.257143 65.828571-43.885714 87.771428h416.914285v29.257143c-7.314286 248.685714-14.628571 336.457143-36.571428 365.714286-14.628571 14.628571-29.257143 21.942857-43.885715 21.942857H643.657143c0-14.628571-7.314286-36.571429-14.628572-51.2h73.142858c7.314286 0 14.628571 0 21.942857-7.314286 14.628571-14.628571 21.942857-95.085714 29.257143-299.885714H358.4c-36.571429 51.2-80.457143 102.4-131.657143 138.971428z m512 380.342858H453.485714c-117.028571 0-153.6-21.942857-153.6-102.4V409.6h307.2v219.428571H358.4v117.028572c0 43.885714 14.628571 51.2 95.085714 51.2h285.257143c65.828571 0 73.142857-14.628571 80.457143-95.085714 14.628571 7.314286 36.571429 14.628571 51.2 21.942857-7.314286 102.4-29.257143 131.657143-131.657143 131.657143z m570.514286-43.885715h-51.2v-36.571428H1024v51.2h-51.2V292.571429h138.971429V182.857143h58.514285V292.571429h138.971429v519.314285zM1609.142857 650.971429c0 43.885714-7.314286 80.457143-36.571428 95.085714-14.628571 7.314286-29.257143 14.628571-43.885715 14.628571H1462.857143c0-14.628571-7.314286-36.571429-14.628572-51.2h58.514286c7.314286 0 21.942857 0 29.257143-7.314285 14.628571-7.314286 21.942857-29.257143 21.942857-58.514286 0-43.885714-21.942857-102.4-87.771428-168.228572 29.257143-65.828571 58.514286-138.971429 80.457142-197.485714h-124.342857v592.457143h-51.2V219.428571H1579.885714l36.571429 21.942858c-29.257143 65.828571-65.828571 153.6-95.085714 226.742857 73.142857 65.828571 87.771429 124.342857 87.771428 182.857143z m-446.171428-146.285715h95.085714V343.771429h-95.085714v160.914285z" fill="#d81e06" p-id="3598"></path></svg>