<?xml version="1.0" standalone="no"?><!DOCTYPE svg PUBLIC "-//W3C//DTD SVG 1.1//EN" "http://www.w3.org/Graphics/SVG/1.1/DTD/svg11.dtd"><svg t="1532951636293" class="icon" style="" viewBox="0 0 1038 1024" version="1.1" xmlns="http://www.w3.org/2000/svg" p-id="2791" xmlns:xlink="http://www.w3.org/1999/xlink" width="202.734375" height="200"><defs><style type="text/css"></style></defs><path d="M580.841901 215.285205l0.186242 67.00609h40.278355v-91.507111l-18.561751 0.185219c-14.602579 0.125867-21.902846 8.231475-21.902846 24.315802zM581.02712 389.020084c0 16.335037 7.670703 24.437575 23.016203 24.315802l17.262152-0.185218v-96.519264h-40.278355v72.38868zM656.200216 413.150668h20.046569c6.185886-0.124843 11.07422-2.042519 14.663978-5.754051 3.587712-3.587712 5.382591-7.733125 5.38259-12.43624v-78.328973h-40.093137v96.519264zM672.163793 190.785208h-15.963577v91.50711h40.093137V211.387431c0-6.557346-1.854231-11.754718-5.567809-15.592116-3.342118-3.340071-9.530051-5.010107-18.561751-5.010107z" fill="#d81e06" p-id="2792"></path><path d="M953.194374 7.507998h-849.344144c-46.765093 0-84.934414 38.271652-84.934415 84.934414v382.204865c0 46.765093 38.271652 84.934414 84.934415 84.934415h849.344144c46.765093 0 84.934414-38.271652 84.934415-84.934415v-382.204865c0-46.661739-38.169321-84.934414-84.934415-84.934414zM166.366052 196.909695c10.516518-1.855254 17.383926-7.114025 20.603247-15.776311 3.462868-9.402137 7.91732-25.736151 13.364379-49.002041h35.82288l-6.310729 24.12956H437.176874c15.591093 0 27.903513 4.332678 36.937261 12.992919 9.156544 8.909927 13.735839 20.110013 13.735839 33.596166v138.467655c0 10.766205-2.227738 19.799952-6.68219 27.099194-3.711532 6.189979-8.538467 11.261485-14.477736 15.220657-6.435573 4.207835-12.621459 6.310729-18.561751 6.310729h-17.262152v-33.782407c15.095813-0.618077 22.644743-8.102538 22.644743-22.458502V210.830753c0-13.610996-7.673773-20.417005-23.016203-20.417006H220.565465c-9.530051 24.12956-27.595498 37.804001-54.199413 41.020253v-34.524305z m340.601328 250.207575H231.702106c-15.591093 0-26.420743-2.166339-32.482809-6.496971-7.92039-5.692652-13.549597-11.818163-16.890692-18.375509-3.341095-6.310729-5.01113-14.663978-5.01113-25.057699V266.143523c0-10.640338 3.091408-19.053961 9.280364-25.242918 6.185886-6.185886 14.414291-9.280364 24.687262-9.280364h145.336086c11.383258 0 18.682501 0.310062 21.901822 0.928139 17.695011 3.341095 26.542516 14.663978 26.542517 33.967626v64.594157c0 24.62484-12.251022 36.937261-36.752043 36.937261h-156.657945v19.675108c0 9.405207 1.978051 15.963577 5.939269 19.676132 3.959172 3.587712 11.5695 5.382591 22.830984 5.38259h266.541589v34.336016z m223.665059-51.601238c0 16.827247-4.51892 29.759791-13.548574 38.793538-9.531074 9.280364-20.72809 13.921058-33.597189 13.921058l-84.638679 0.186241c-16.458857 0-29.327956-4.63967-38.60832-13.921057-9.035794-9.15859-13.550621-22.459524-13.55062-39.906895l-0.186242-191.739953c0-12.001335 4.145413-22.459524 12.437264-31.368428 9.279341-9.898441 21.715581-14.910595 37.306674-15.034414h25.058722v-24.315802h34.894741v24.315802h20.418029c18.437931 0.124843 32.112372 4.889357 41.020252 14.292517 8.66024 9.15859 12.992919 20.85191 12.992919 35.080983V395.516032h0.001023zM889.518123 257.976516c0 7.424086-1.113357 13.178137-3.342118 17.262152-1.113357 2.105964-3.034103 4.640694-5.754051 7.610328 5.940292 3.590781 8.909927 9.219989 8.909927 16.891716l0.186242 95.591125c0 25.118074-12.065803 37.679158-36.195364 37.679158h-47.701418l-0.186242-34.710547h35.266202c6.185886 0 10.023284-0.86367 11.508101-2.598174 1.979074-2.227738 2.969635-6.185886 2.969635-11.878538l-0.186242-71.833026c-0.12382-4.204765-0.991584-7.114025-2.598175-8.722662-1.981121-1.979074-6.497994-2.969635-13.55062-2.969634l-36.937261 0.186241V266.143523h36.381606c8.28878 0 13.239536-1.359974 14.848172-4.082992 1.360997-2.102894 2.042519-6.125511 2.04252-12.06478v-66.450435c0-6.803963-0.807389-11.136641-2.411933-12.992919-1.983167-2.226714-5.818519-3.341095-11.508102-3.341094h-39.164998c-6.681166 0-10.9504 1.113357-12.8077 3.341094-1.363044 1.484817-2.040473 4.51892-2.040473 9.095146v268.212648h-34.339086V167.211303c0-9.773598 2.719948-17.695011 8.165984-23.759124 6.557346-7.299243 14.351869-10.951423 23.38664-10.951423h69.23485c10.886955 0 19.61064 3.094478 26.17208 9.280364 6.431479 5.939269 9.651824 15.034415 9.651824 27.285437v88.909959z" fill="#d81e06" p-id="2793"></path><path d="M368.499725 330.36622c0.989537-1.360997 1.484817-3.587712 1.484817-6.68219V279.32166c0-5.197372-0.620124-8.473999-1.856277-9.837043-1.855254-1.978051-5.754051-2.969635-11.69332-2.969634H226.690976c-6.931876 0-11.386328 1.363044-13.364379 4.084015-1.113357 1.609661-1.670036 4.022617-1.670036 7.238868v55.313793h143.108348c7.670703-0.001023 12.249999-0.929162 13.734816-2.785439z" fill="#d81e06" p-id="2794"></path></svg>